<svg width="20" height="20" viewBox="0 0 20 20" fill="none" xmlns="http://www.w3.org/2000/svg">
  <path d="M2.5 2.5H3.99167C4.82501 2.5 5.48334 3.24167 5.41667 4.06667L4.76667 11.8333C4.65834 13.1167 5.68334 14.2333 6.97501 14.2333H15.1583C16.275 14.2333 17.2417 13.3333 17.325 12.225L17.75 6.56667C17.8417 5.25834 16.8333 4.19167 15.5167 4.19167H5.16667" stroke="black" stroke-width="1.5" stroke-miterlimit="10" stroke-linecap="round" stroke-linejoin="round"/>
  <path d="M13.5417 18.3333C14.0733 18.3333 14.5 17.9067 14.5 17.375C14.5 16.8433 14.0733 16.4167 13.5417 16.4167C13.01 16.4167 12.5833 16.8433 12.5833 17.375C12.5833 17.9067 13.01 18.3333 13.5417 18.3333Z" stroke="black" stroke-width="1.5" stroke-miterlimit="10" stroke-linecap="round" stroke-linejoin="round"/>
  <path d="M6.87501 18.3333C7.40668 18.3333 7.83334 17.9067 7.83334 17.375C7.83334 16.8433 7.40668 16.4167 6.87501 16.4167C6.34334 16.4167 5.91667 16.8433 5.91667 17.375C5.91667 17.9067 6.34334 18.3333 6.87501 18.3333Z" stroke="black" stroke-width="1.5" stroke-miterlimit="10" stroke-linecap="round" stroke-linejoin="round"/>
  <path d="M7.5 7.5H17.5" stroke="black" stroke-width="1.5" stroke-miterlimit="10" stroke-linecap="round" stroke-linejoin="round"/>
</svg> 