<?xml version="1.0" encoding="UTF-8"?>
<svg width="56" height="35" viewBox="0 0 56 35" fill="none" xmlns="http://www.w3.org/2000/svg">
<g clip-path="url(#clip0_56355_124)">
<path fill-rule="evenodd" clip-rule="evenodd" d="M5 5H50.6005V6.84617H5V5ZM5 8.69234H50.6005V10.5385H5V8.69234ZM5 12.3847H50.6005V14.2309H5V12.3847ZM5 16.077H50.6005V17.9232H5V16.077ZM5 19.7694H50.6005V21.6155H5V19.7694ZM5 23.4617H50.6005V25.3079H5V23.4617ZM5 27.1541H50.6005V29.0002H5V27.1541Z" fill="#BD3D44"/>
<path fill-rule="evenodd" clip-rule="evenodd" d="M5 6.8457H50.6005V8.69187H5V6.8457ZM5 10.538H50.6005V12.3842H5V10.538ZM5 14.2304H50.6005V16.0766H5V14.2304ZM5 17.9227H50.6005V19.7689H5V17.9227ZM5 21.6151H50.6005V23.4613H5V21.6151ZM5 25.3074H50.6005V27.1536H5V25.3074Z" fill="white"/>
<path fill-rule="evenodd" clip-rule="evenodd" d="M5 5H23.2402V17.9232H5V5Z" fill="#192F5D"/>
<path fill-rule="evenodd" clip-rule="evenodd" d="M6.51319 5.55371L6.69778 6.0706H7.21472L6.79008 6.38448L6.95625 6.88295L6.51319 6.56907L6.10702 6.88295L6.27319 6.38448L5.83008 6.0706H6.384L6.51319 5.55371ZM9.55936 5.55371L9.72553 6.0706H10.2609L9.81783 6.38448L10.0024 6.88295L9.55936 6.56907L9.1163 6.88295L9.30089 6.38448L8.85783 6.0706H9.39319L9.55936 5.55371ZM12.6055 5.55371L12.7717 6.0706H13.3071L12.864 6.38448L13.0486 6.88295L12.6055 6.56907L12.1625 6.88295L12.3471 6.38448L11.904 6.0706H12.4394L12.6055 5.55371ZM15.6333 5.55371L15.8179 6.0706H16.3348L15.9102 6.38448L16.0763 6.88295L15.6333 6.56907L15.2086 6.88295L15.3748 6.38448L14.9317 6.0706H15.4856L15.6333 5.55371ZM18.6795 5.55371L18.8456 6.0706H19.381L18.9379 6.38448L19.1225 6.88295L18.661 6.56907L18.2363 6.88295L18.4025 6.38448L17.9595 6.0706H18.4948L18.6795 5.55371ZM21.7256 5.55371L21.8918 6.0706H22.4272L21.9841 6.38448L22.1687 6.88295L21.7256 6.56907L21.2826 6.88295L21.4672 6.38448L21.0241 6.0706H21.5595L21.7256 5.55371ZM8.04548 6.84601L8.21166 7.36295H8.74706L8.30395 7.67677L8.48859 8.17524L8.04548 7.86141L7.60242 8.17524L7.78702 7.67677L7.34395 7.36295H7.87936L8.04548 6.84601ZM11.0732 6.84601L11.2578 7.36295H11.7748L11.3501 7.67677L11.5163 8.17524L11.0732 7.86141L10.6486 8.17524L10.8148 7.67677L10.3717 7.36295H10.9255L11.0732 6.84601ZM14.1194 6.84601L14.2856 7.36295H14.8209L14.3779 7.67677L14.5625 8.17524L14.1194 7.86141L13.6763 8.17524L13.8609 7.67677L13.4179 7.36295H13.9532L14.1194 6.84601ZM17.1656 6.84601L17.3318 7.36295H17.8671L17.424 7.67677L17.6087 8.17524L17.1656 7.86141L16.7225 8.17524L16.9071 7.67677L16.464 7.36295H16.9995L17.1656 6.84601ZM20.1933 6.84601L20.3779 7.36295H20.8764L20.4518 7.67677L20.6179 8.17524L20.1749 7.86141L19.7502 8.17524L19.9164 7.67677L19.4733 7.36295H20.0272L20.1933 6.84601ZM6.53161 8.13835L6.67931 8.65524H7.23319L6.79008 8.96912L6.95625 9.46759L6.51319 9.15371L6.10702 9.46759L6.27319 8.96912L5.83008 8.65524H6.384L6.53161 8.13835ZM9.55936 8.13835L9.72553 8.65524H10.2609L9.8363 8.96912L10.0024 9.46759L9.55936 9.15371L9.13472 9.46759L9.30089 8.96912L8.85783 8.65524H9.39319L9.55936 8.13835ZM12.6055 8.13835L12.7717 8.65524H13.3071L12.864 8.96912L13.0486 9.46759L12.6055 9.15371L12.1625 9.46759L12.3471 8.96912L11.904 8.65524H12.4394L12.6055 8.13835ZM15.6333 8.13835L15.8179 8.65524H16.3348L15.9102 8.96912L16.0763 9.46759L15.6333 9.15371L15.2086 9.46759L15.3748 8.96912L14.9317 8.65524H15.4856L15.6333 8.13835ZM18.6795 8.13835L18.8456 8.65524H19.381L18.9564 8.96912L19.1225 9.46759L18.6795 9.15371L18.2548 9.46759L18.421 8.96912L17.9779 8.65524H18.5133L18.6795 8.13835ZM21.7256 8.13835L21.8918 8.65524H22.4272L21.9841 8.96912L22.1687 9.46759L21.7256 9.15371L21.2826 9.46759L21.4672 8.96912L21.0241 8.65524H21.5595L21.7256 8.13835ZM8.04548 9.4306L8.21166 9.94754H8.74706L8.30395 10.2614L8.48859 10.7598L8.04548 10.446L7.60242 10.7598L7.78702 10.2614L7.34395 9.94754H7.87936L8.04548 9.4306ZM11.0732 9.4306L11.2578 9.94754H11.7748L11.3501 10.2614L11.5163 10.7598L11.0732 10.446L10.6486 10.7598L10.8148 10.2614L10.3717 9.94754H10.9255L11.0732 9.4306ZM14.1194 9.4306L14.2856 9.94754H14.8209L14.3963 10.2614L14.5625 10.7598L14.1194 10.446L13.6948 10.7598L13.861 10.2614L13.4179 9.94754H13.9532L14.1194 9.4306ZM17.1656 9.4306L17.3318 9.94754H17.8671L17.424 10.2614L17.6087 10.7599L17.1656 10.4461L16.7225 10.7599L16.9071 10.2614L16.464 9.94759H16.9995L17.1656 9.4306ZM20.1933 9.4306L20.3779 9.94754H20.8764L20.4518 10.2614L20.6179 10.7598L20.1749 10.446L19.7502 10.7598L19.9164 10.2614L19.4733 9.94754H20.0272L20.1933 9.4306ZM6.53161 10.723L6.67931 11.2398H7.23319L6.79008 11.5537L6.95625 12.0522L6.51319 11.7383L6.10702 12.0522L6.27319 11.5537L5.83008 11.2398H6.384L6.53161 10.723ZM9.55936 10.723L9.72553 11.2398H10.2609L9.8363 11.5537L10.0024 12.0522L9.55936 11.7383L9.13472 12.0522L9.30089 11.5537L8.85783 11.2398H9.39319L9.55936 10.723ZM12.6055 10.723L12.7717 11.2398H13.3071L12.864 11.5537L13.0486 12.0522L12.6055 11.7383L12.1625 12.0522L12.3471 11.5537L11.904 11.2398H12.4394L12.6055 10.723ZM15.6333 10.723L15.8179 11.2398H16.3348L15.9102 11.5537L16.0763 12.0522L15.6333 11.7383L15.2086 12.0522L15.3748 11.5537L14.9317 11.2398H15.4856L15.6333 10.723ZM18.6795 10.723L18.8456 11.2398H19.381L18.9564 11.5537L19.1225 12.0522L18.6795 11.7383L18.2548 12.0522L18.421 11.5537L17.9779 11.2398H18.5133L18.6795 10.723ZM21.7256 10.723L21.8918 11.2398H22.4272L21.9841 11.5537L22.1687 12.0522L21.7256 11.7383L21.2826 12.0522L21.4672 11.5537L21.0241 11.2398H21.5595L21.7256 10.723ZM8.04548 12.0152L8.21166 12.5322H8.74706L8.30395 12.846L8.48859 13.3445L8.04548 13.0307L7.60242 13.3445L7.78702 12.846L7.34395 12.5322H7.87936L8.04548 12.0152ZM11.0732 12.0152L11.2578 12.5322H11.7748L11.3501 12.846L11.5163 13.3445L11.0732 13.0307L10.6486 13.3445L10.8148 12.846L10.3717 12.5322H10.9255L11.0732 12.0152ZM14.1194 12.0152L14.2856 12.5322H14.8209L14.3963 12.846L14.5625 13.3445L14.1194 13.0307L13.6948 13.3445L13.861 12.846L13.4179 12.5322H13.9532L14.1194 12.0152ZM17.1656 12.0152L17.3318 12.5322H17.8671L17.424 12.846L17.6087 13.3445L17.1656 13.0307L16.7225 13.3445L16.9071 12.846L16.464 12.5322H16.9995L17.1656 12.0152ZM20.1933 12.0152L20.3779 12.5322H20.8764L20.4518 12.846L20.6179 13.3445L20.1749 13.0307L19.7502 13.3445L19.9164 12.846L19.4733 12.5322H20.0272L20.1933 12.0152ZM6.53161 13.3076L6.67931 13.8245H7.23319L6.79008 14.1383L6.95625 14.6368L6.51319 14.3229L6.10702 14.6368L6.27319 14.1383L5.83008 13.8245H6.384L6.53161 13.3076ZM9.55936 13.3076L9.72553 13.8245H10.2609L9.8363 14.1383L10.0024 14.6368L9.55936 14.3229L9.13472 14.6368L9.30089 14.1383L8.85783 13.8245H9.39319L9.55936 13.3076ZM12.6055 13.3076L12.7717 13.8245H13.3071L12.864 14.1383L13.0486 14.6368L12.6055 14.3229L12.1625 14.6368L12.3471 14.1383L11.904 13.8245H12.4394L12.6055 13.3076ZM15.6333 13.3076L15.8179 13.8245H16.3348L15.9102 14.1383L16.0763 14.6368L15.6333 14.3229L15.2086 14.6368L15.3748 14.1383L14.9317 13.8245H15.4856L15.6333 13.3076ZM18.6795 13.3076L18.8456 13.8245H19.381L18.9564 14.1383L19.1225 14.6368L18.6795 14.3229L18.2548 14.6368L18.421 14.1383L17.9779 13.8245H18.5133L18.6795 13.3076ZM21.7256 13.3076L21.8918 13.8245H22.4272L21.9841 14.1383L22.1687 14.6368L21.7256 14.3229L21.2826 14.6368L21.4672 14.1383L21.0241 13.8245H21.5595L21.7256 13.3076ZM8.04548 14.5999L8.21166 15.1169H8.74706L8.30395 15.4307L8.48859 15.9292L8.04548 15.6153L7.60242 15.9292L7.78702 15.4307L7.34395 15.1169H7.87936L8.04548 14.5999ZM11.0732 14.5999L11.2578 15.1169H11.7748L11.3501 15.4307L11.5163 15.9292L11.0732 15.6153L10.6486 15.9292L10.8148 15.4307L10.3717 15.1169H10.9255L11.0732 14.5999ZM14.1194 14.5999L14.2856 15.1169H14.8209L14.3963 15.4307L14.5625 15.9292L14.1194 15.6153L13.6948 15.9292L13.861 15.4307L13.4179 15.1169H13.9532L14.1194 14.5999ZM17.1656 14.5999L17.3318 15.1169H17.8671L17.424 15.4307L17.6087 15.9292L17.1656 15.6154L16.7225 15.9292L16.9071 15.4307L16.464 15.1169H16.9995L17.1656 14.5999ZM20.1933 14.5999L20.3779 15.1169H20.8764L20.4518 15.4307L20.6179 15.9292L20.1749 15.6153L19.7502 15.9292L19.9164 15.4307L19.4733 15.1169H20.0272L20.1933 14.5999ZM6.53161 15.8923L6.67931 16.4092H7.23319L6.79008 16.723L6.95625 17.2215L6.51319 16.9076L6.10702 17.2215L6.27319 16.723L5.83008 16.4092H6.384L6.53161 15.8923ZM9.55936 15.8923L9.72553 16.4092H10.2609L9.8363 16.723L10.0024 17.2215L9.55936 16.9076L9.13472 17.2215L9.30089 16.723L8.85783 16.4092H9.39319L9.55936 15.8923ZM12.6055 15.8923L12.7717 16.4092H13.3071L12.864 16.723L13.0486 17.2215L12.6055 16.9076L12.1625 17.2215L12.3471 16.723L11.904 16.4092H12.4394L12.6055 15.8923ZM15.6333 15.8923L15.8179 16.4092H16.3348L15.9102 16.723L16.0763 17.2215L15.6333 16.9076L15.2086 17.2215L15.3748 16.723L14.9317 16.4092H15.4856L15.6333 15.8923ZM18.6795 15.8923L18.8456 16.4092H19.381L18.9564 16.723L19.1225 17.2215L18.6795 16.9076L18.2548 17.2215L18.421 16.723L17.9779 16.4092H18.5133L18.6795 15.8923ZM21.7256 15.8923L21.8918 16.4092H22.4272L21.9841 16.723L22.1687 17.2215L21.7256 16.9076L21.2826 17.2215L21.4672 16.723L21.0241 16.4092H21.5595L21.7256 15.8923Z" fill="white"/>
</g>
<defs>
<clipPath id="clip0_56355_124">
<rect width="56" height="35" rx="4" fill="white"/>
</clipPath>
</defs>
</svg>