<?xml version="1.0" encoding="UTF-8"?>
<svg width="56" height="35" viewBox="0 0 56 35" fill="none" xmlns="http://www.w3.org/2000/svg">
<rect x="0.5" y="0.5" width="55" height="34" rx="4.5" fill="white" stroke="#FFF2F5"/>
<path d="M28.0001 10.5C25.9376 10.5 24.2501 12.1875 24.2501 14.25C24.2501 16.875 27.4376 17.4375 27.4376 18.5625C27.4376 19.125 26.8751 19.6875 25.9376 19.6875C24.8126 19.6875 23.6876 19.125 23.6876 19.125L23.1251 21.1875C23.1251 21.1875 24.2501 21.75 25.9376 21.75C28.2813 21.75 29.8438 20.0625 29.8438 17.8125C29.8438 15.1875 26.6563 14.625 26.6563 13.5C26.6563 13.125 27.0001 12.5625 28.0001 12.5625C28.8438 12.5625 29.8438 13.125 29.8438 13.125L30.4063 11.0625C30.4063 11.0625 29.4063 10.5 28.0001 10.5Z" fill="#5A31F4"/>
<path d="M35.4376 10.5C34.3126 10.5 33.4688 11.0625 33.4688 11.0625L32.9063 10.6875H31.2188V21.5625H33.6251V14.4375C33.6251 14.4375 34.3126 13.875 35.1563 13.875C36.0001 13.875 36.5626 14.4375 36.5626 15.1875V21.5625H38.9688V14.8125C38.9688 12.1875 37.5001 10.5 35.4376 10.5Z" fill="#5A31F4"/>
<path d="M42.5626 7.3125L40.1563 21.5625H42.5626L44.9688 7.3125H42.5626Z" fill="#5A31F4"/>
<path d="M20.4376 10.6875L18.7501 18.1875L17.0626 10.6875H14.8126L13.1251 18.1875L11.4376 10.6875H9.03137L11.8438 21.5625H14.2501L15.9376 14.0625L17.6251 21.5625H20.0313L22.8438 10.6875H20.4376Z" fill="#5A31F4"/>
</svg> 